<svg width="378" height="95" viewBox="0 0 378 95" fill="none" xmlns="http://www.w3.org/2000/svg">
<g clip-path="url(#clip0_999_511)">
<path d="M489 -244H-111V356H489V-244Z" fill="#C6FB50"/>
<path d="M489 -244H-111V356H489V-244Z" fill="#C6FB50"/>
<mask id="mask0_999_511" style="mask-type:luminance" maskUnits="userSpaceOnUse" x="0" y="0" width="378" height="95">
<path d="M0 0H378V95H0V0Z" fill="white"/>
</mask>
<g mask="url(#mask0_999_511)">
<path d="M0.0107422 0H377.995V95H0.0107422V0Z" fill="#C6FB50"/>
</g>
<path d="M214.839 30.417C213.537 30.417 212.479 31.4795 212.479 32.792C212.479 34.1045 213.537 35.167 214.839 35.167H243.183C244.49 35.167 245.547 34.1045 245.547 32.792C245.547 31.4795 244.49 30.417 243.183 30.417H214.839Z" fill="black"/>
<path d="M251.214 60.1045C251.214 61.5472 252.381 62.7139 253.813 62.7139C255.25 62.7139 256.412 61.5472 256.412 60.1045V39.7087L272.714 58.6774C272.891 58.8857 274.615 60.917 274.839 61.0524C274.839 61.0524 276.438 62.7139 277.438 62.7139C278.87 62.7139 280.032 61.5472 280.032 60.1045V33.9795C280.032 32.5368 278.87 31.3649 277.438 31.3649C276 31.3649 274.839 32.5368 274.839 33.9795V53.3857L255.948 31.391C255.677 31.0732 255.344 30.8389 254.979 30.693C254.631 30.516 254.235 30.417 253.813 30.417C252.381 30.417 251.214 31.5837 251.214 33.0264V60.1045Z" fill="black"/>
<path d="M94.3698 31.3643C93.0677 31.3643 92.0104 32.4268 92.0104 33.7393C92.0104 34.0257 91.9167 35.1507 92.0104 35.4007C92.0104 35.1038 91.9167 35.6715 92.0104 35.4007V60.5778C92.0104 60.6195 92.0104 60.6611 92.0104 60.6976C92.0104 60.7393 92.0104 60.7757 92.0104 60.8174C92.0104 62.1247 93.0677 63.1924 94.3698 63.1924H122.719C124.021 63.1924 125.078 62.1247 125.078 60.8174C125.078 59.5049 124.021 58.4424 122.719 58.4424H97.2083V49.8903H97.6771V49.8799C97.7552 49.8851 97.8333 49.8903 97.9167 49.8903H107.833C109.271 49.8903 110.432 48.7184 110.432 47.2757C110.432 45.833 109.271 44.6663 107.833 44.6663H97.9167C97.8333 44.6663 97.7552 44.6663 97.6771 44.6768V44.6663C97.5313 44.6663 97.3698 44.6768 97.2083 44.7028V36.1143H122.719C124.021 36.1143 125.078 35.0518 125.078 33.7393C125.078 32.4268 124.021 31.3643 122.719 31.3643H94.3698Z" fill="black"/>
<path d="M129.057 31.1147C130.302 30.4792 131.822 30.974 132.458 32.2292L144.229 55.5209L152.119 40.3803C152.77 39.1355 154.296 38.6563 155.536 39.3074C156.77 39.9584 157.25 41.4949 156.599 42.7397L146.619 61.8907C145.974 63.1303 144.447 63.6147 143.208 62.9584C143.208 62.9584 142.349 62.4063 142.088 61.8907L127.947 34.5313C127.317 33.2813 127.812 31.7501 129.057 31.1147Z" fill="black"/>
<path d="M297.51 60.1038C297.51 61.5466 298.677 62.7132 300.109 62.7132C301.547 62.7132 302.708 61.5466 302.708 60.1038V37.3018C302.708 37.0049 302.568 36.3851 302.474 36.1143C302.474 36.2288 302.474 36.0049 302.474 36.1143H313.573C314.88 36.1143 315.938 35.0518 315.938 33.7393C315.938 32.4268 314.88 31.3643 313.573 31.3643H286.177C284.87 31.3643 283.812 32.4268 283.812 33.7393C283.812 35.0518 284.87 36.1143 286.177 36.1143H297.797C297.651 36.4007 297.557 36.7132 297.526 37.0413L297.505 37.0934H297.521C297.521 37.1247 297.516 37.1507 297.516 37.182C297.516 37.2236 297.51 37.2653 297.51 37.3018V60.1038Z" fill="black"/>
<path d="M192.869 63.1924C195.468 63.1924 207.281 59.8382 207.281 47.2757C207.281 36.9684 199.015 31.3643 195 31.3643H180.354C180.135 31.3643 179.927 31.3955 179.724 31.4476C178.01 31.8799 175.63 33.8747 175.63 36.1143V48.4632C175.63 49.7757 176.687 50.8382 177.989 50.8382C179.297 50.8382 180.354 49.7757 180.354 48.4632V36.1143H192.239C199.015 36.1143 203.26 41.8851 203.031 47.2757C202.771 53.4007 196.963 58.4424 192.239 58.4424C187.515 58.4424 185.078 58.4424 185.078 58.4424H177.989C176.687 58.4424 175.63 59.5049 175.63 60.8174C175.63 62.1247 176.687 63.1924 177.989 63.1924C177.989 63.1924 190.276 63.1924 192.869 63.1924Z" fill="#C6FB50"/>
<path d="M321.135 31.3643C319.828 31.3643 318.771 32.4268 318.771 33.7393C318.771 35.0518 319.828 36.1143 321.135 36.1143H347.119V44.6663H337.906C336.468 44.6663 335.307 45.833 335.307 47.2757C335.307 48.7184 336.468 49.8903 337.906 49.8903H346.646V58.4424H321.135C319.828 58.4424 318.771 59.5049 318.771 60.8174C318.771 62.1247 319.828 63.1924 321.135 63.1924H349.479C350.781 63.1924 351.843 62.1247 351.843 60.8174V33.7393C351.843 32.4268 350.781 31.3643 349.479 31.3643H321.135Z" fill="black"/>
<path d="M217.391 43.9118C217.698 43.7868 218.032 43.7139 218.381 43.7139H228.302C229.74 43.7139 230.901 44.8857 230.901 46.3285C230.901 47.7712 229.74 48.943 228.302 48.943H217.662C217.672 49.0212 217.672 49.0993 217.672 49.1774V57.4899H242.948C244.386 57.4899 245.547 58.6618 245.547 60.1045C245.547 61.5472 244.386 62.7139 242.948 62.7139H215.078C213.641 62.7139 212.479 61.5472 212.479 60.1045V49.1774C212.479 49.0993 212.479 49.0212 212.49 48.943H212.479C212.479 46.6201 215.209 44.542 217.391 43.9118Z" fill="black"/>
<path d="M168.307 63.193C166.869 63.193 165.708 62.0212 165.708 60.5785V46.3285C165.708 44.8857 166.869 43.7139 168.307 43.7139C169.739 43.7139 170.906 44.8857 170.906 46.3285V60.5785C170.906 62.0212 169.739 63.193 168.307 63.193Z" fill="black"/>
<path d="M165.708 35.4014C165.708 36.8441 166.869 38.016 168.307 38.016C169.739 38.016 170.906 36.8441 170.906 35.4014V34.4535C170.906 33.0107 169.739 31.8389 168.307 31.8389C166.869 31.8389 165.708 33.0107 165.708 34.4535V35.4014Z" fill="black"/>
<path fill-rule="evenodd" clip-rule="evenodd" d="M49.4531 70.792C62.4948 70.792 73.0729 60.1566 73.0729 47.042C73.0729 33.9222 62.4948 23.292 49.4531 23.292C36.4063 23.292 25.8281 33.9222 25.8281 47.042C25.8281 60.1566 36.4063 70.792 49.4531 70.792ZM37.4427 32.792C36.2448 32.792 35.276 33.766 35.276 34.9639V44.3805C35.276 45.5837 36.2448 46.5524 37.4427 46.5524C38.6354 46.5524 39.6042 45.5837 39.6042 44.3805V37.141H61.2344C62.4323 37.141 63.401 36.167 63.401 34.9639C63.401 33.766 62.4323 32.792 61.2344 32.792H37.4427ZM35.276 58.167C35.276 56.9639 36.2448 55.9899 37.4427 55.9899H59.3698V48.7399C59.3698 47.542 60.3385 46.568 61.5365 46.568C62.7292 46.568 63.6979 47.542 63.6979 48.7399V58.1566C63.6979 59.3545 62.7292 60.3285 61.5365 60.3285C61.5104 60.3285 61.4896 60.3285 61.4688 60.3285C61.3906 60.3389 61.3125 60.3389 61.2344 60.3389H37.4427C36.2448 60.3389 35.276 59.3649 35.276 58.167ZM49.6875 50.3649C51.6458 50.3649 53.2292 48.7712 53.2292 46.8024C53.2292 44.8337 51.6458 43.2399 49.6875 43.2399C47.7292 43.2399 46.1458 44.8337 46.1458 46.8024C46.1458 48.7712 47.7292 50.3649 49.6875 50.3649Z" fill="black"/>
<path fill-rule="evenodd" clip-rule="evenodd" d="M49.4531 70.792C62.4948 70.792 73.0729 60.1566 73.0729 47.042C73.0729 33.9222 62.4948 23.292 49.4531 23.292C36.4063 23.292 25.8281 33.9222 25.8281 47.042C25.8281 60.1566 36.4063 70.792 49.4531 70.792ZM37.4427 32.792C36.2448 32.792 35.276 33.766 35.276 34.9639V44.3805C35.276 45.5837 36.2448 46.5524 37.4427 46.5524C38.6354 46.5524 39.6042 45.5837 39.6042 44.3805V37.141H61.2344C62.4323 37.141 63.401 36.167 63.401 34.9639C63.401 33.766 62.4323 32.792 61.2344 32.792H37.4427ZM35.276 58.167C35.276 56.9639 36.2448 55.9899 37.4427 55.9899H59.3698V48.7399C59.3698 47.542 60.3385 46.568 61.5365 46.568C62.7292 46.568 63.6979 47.542 63.6979 48.7399V58.1566C63.6979 59.3545 62.7292 60.3285 61.5365 60.3285C61.5104 60.3285 61.4896 60.3285 61.4688 60.3285C61.3906 60.3389 61.3125 60.3389 61.2344 60.3389H37.4427C36.2448 60.3389 35.276 59.3649 35.276 58.167ZM49.6875 50.3649C51.6458 50.3649 53.2292 48.7712 53.2292 46.8024C53.2292 44.8337 51.6458 43.2399 49.6875 43.2399C47.7292 43.2399 46.1458 44.8337 46.1458 46.8024C46.1458 48.7712 47.7292 50.3649 49.6875 50.3649Z" fill="black"/>
<path d="M192.849 63.1924C195.448 63.1924 207.261 59.8382 207.261 47.2757C207.261 36.9684 198.99 31.3643 194.974 31.3643H180.334C180.115 31.3643 179.907 31.3955 179.703 31.4476C177.99 31.8799 175.604 33.8747 175.604 36.1143V48.4632C175.604 49.7757 176.667 50.8382 177.969 50.8382C179.271 50.8382 180.334 49.7757 180.334 48.4632V36.1143H192.219C198.99 36.1143 203.235 41.8851 203.006 47.2757C202.745 53.4007 196.943 58.4424 192.219 58.4424C187.495 58.4424 185.058 58.4424 185.058 58.4424H177.969C176.667 58.4424 175.604 59.5049 175.604 60.8174C175.604 62.1247 176.667 63.1924 177.969 63.1924C177.969 63.1924 190.25 63.1924 192.849 63.1924Z" fill="black"/>
</g>
<defs>
<clipPath id="clip0_999_511">
<rect width="378" height="95" fill="white"/>
</clipPath>
</defs>
</svg>
