<svg width="347" height="67" viewBox="0 0 347 67" fill="none" xmlns="http://www.w3.org/2000/svg">
<rect width="347" height="67" fill="black"/>
<path fill-rule="evenodd" clip-rule="evenodd" d="M33.625 57.5C46.6667 57.5 57.2448 46.8646 57.2448 33.75C57.2448 20.6302 46.6667 10 33.625 10C20.5781 10 10 20.6302 10 33.75C10 46.8646 20.5781 57.5 33.625 57.5ZM21.6146 19.5C20.4167 19.5 19.4479 20.474 19.4479 21.6719V31.0885C19.4479 32.2917 20.4167 33.2604 21.6146 33.2604C22.8073 33.2604 23.776 32.2917 23.776 31.0885V23.849H45.4063C46.6042 23.849 47.5729 22.875 47.5729 21.6719C47.5729 20.474 46.6042 19.5 45.4063 19.5H21.6146ZM19.4479 44.875C19.4479 43.6719 20.4167 42.6979 21.6146 42.6979H43.5417V35.4479C43.5417 34.25 44.5104 33.276 45.7083 33.276C46.901 33.276 47.8698 34.25 47.8698 35.4479V44.8646C47.8698 46.0625 46.901 47.0365 45.7083 47.0365C45.6823 47.0365 45.6615 47.0365 45.6406 47.0365C45.5625 47.0469 45.4844 47.0469 45.4063 47.0469H21.6146C20.4167 47.0469 19.4479 46.0729 19.4479 44.875ZM33.8594 37.0729C35.8177 37.0729 37.401 35.4792 37.401 33.5104C37.401 31.5417 35.8177 29.9479 33.8594 29.9479C31.901 29.9479 30.3177 31.5417 30.3177 33.5104C30.3177 35.4792 31.901 37.0729 33.8594 37.0729Z" fill="#D1F613"/>
<path d="M78.3594 18.1533C77.0573 18.1533 76 19.2158 76 20.5283C76 20.8148 76 22.1898 76 22.1898V47.5335C76 47.5752 76 47.6169 76 47.6533C76 47.695 76 47.7314 76 47.7731C76 49.0804 77.0573 50.1481 78.3594 50.1481H106.708C108.01 50.1481 109.068 49.0804 109.068 47.7731C109.068 46.4606 108.01 45.3981 106.708 45.3981H81.1979V36.6794H81.6667V36.6689C81.7448 36.6742 81.8229 36.6794 81.9063 36.6794H91.8229C93.2604 36.6794 94.4219 35.5075 94.4219 34.0648C94.4219 32.6221 93.2604 31.4554 91.8229 31.4554H81.9063C81.8229 31.4554 81.7448 31.4554 81.6667 31.4658V31.4554C81.5208 31.4554 81.3594 31.4658 81.1979 31.4919V22.9033H106.708C108.01 22.9033 109.068 21.8408 109.068 20.5283C109.068 19.2158 108.01 18.1533 106.708 18.1533H78.3594Z" fill="#D1F613"/>
<path d="M115.45 18.2817C116.695 17.6462 118.216 18.141 118.851 19.3962L130.622 42.6879L138.513 27.5473C139.164 26.3025 140.69 25.8233 141.93 26.4744C143.164 27.1254 143.643 28.6619 142.992 29.9067L132.979 48.9372C132.333 50.1768 130.807 50.6611 129.567 50.0049C129.567 50.0049 128.708 49.4528 128.448 48.9372L114.341 21.6983C113.711 20.4483 114.206 18.9171 115.45 18.2817Z" fill="#D1F613"/>
<path d="M150.5 50.245C149.117 50.245 148 49.0808 148 47.6475V33.5975C148 32.1642 149.117 31 150.5 31C151.878 31 153 32.1642 153 33.5975V47.6475C153 49.0808 151.878 50.245 150.5 50.245Z" fill="#D1F613"/>
<path d="M148.283 22.2139C148.283 23.6566 149.445 24.8285 150.882 24.8285C152.314 24.8285 153.481 23.6566 153.481 22.2139V21.266C153.481 19.8232 152.314 18.6514 150.882 18.6514C149.445 18.6514 148.283 19.8232 148.283 21.266V22.2139Z" fill="#D1F613"/>
<path d="M175.726 50.2954C178.325 50.2954 190.138 46.4798 190.138 33.9173C190.138 23.61 181.867 18.0059 177.851 18.0059H163.211C162.992 18.0059 162.784 18.0371 162.58 18.0892C160.867 18.5215 158.481 20.5163 158.481 22.7559V35.1048C158.481 36.4173 159.544 37.4798 160.846 37.4798C162.148 37.4798 163.211 36.4173 163.211 35.1048V22.7559H175.096C181.867 22.7559 186.112 28.5267 185.882 33.9173C185.622 40.0423 179.82 45.5454 175.096 45.5454C170.372 45.5454 167.935 45.5454 167.935 45.5454H160.846C159.544 45.5454 158.481 46.6079 158.481 47.9204C158.481 49.2277 159.544 50.2954 160.846 50.2954C160.846 50.2954 173.127 50.2954 175.726 50.2954Z" fill="#D1F613"/>
<path d="M197.497 18.1514C196.195 18.1514 195.138 19.2139 195.138 20.5264C195.138 21.8389 196.195 22.9014 197.497 22.9014H225.841C227.148 22.9014 228.205 21.8389 228.205 20.5264C228.205 19.2139 227.148 18.1514 225.841 18.1514H197.497Z" fill="#D1F613"/>
<path d="M200.049 31.3493C200.356 31.2243 200.69 31.1514 201.039 31.1514H210.961C212.398 31.1514 213.56 32.3232 213.56 33.766C213.56 35.2087 212.398 36.3805 210.961 36.3805H200.32C200.33 36.4587 200.33 36.5368 200.33 36.6149V44.9274H225.606C227.044 44.9274 228.205 46.0993 228.205 47.542C228.205 48.9847 227.044 50.1514 225.606 50.1514H197.737C196.299 50.1514 195.138 48.9847 195.138 47.542V36.6149C195.138 36.5368 195.138 36.4587 195.148 36.3805H195.138C195.138 34.0576 197.867 31.9795 200.049 31.3493Z" fill="#D1F613"/>
<path d="M233.205 47.6927C233.205 49.1354 234.372 50.3021 235.804 50.3021C237.242 50.3021 238.403 49.1354 238.403 47.6927V27.2969L254.594 45.9635C254.771 46.1719 256.495 48.2031 256.719 48.3385C256.719 48.3385 258.318 50 259.318 50C260.75 50 261.911 48.8333 261.911 47.3906L262.023 20.6146C262.023 19.1719 260.861 18 259.429 18C257.992 18 256.83 19.1719 256.83 20.6146V40.974L237.939 18.9792C237.669 18.6615 237.335 18.4271 236.971 18.2812C236.622 18.1042 236.226 18.0052 235.804 18.0052C234.372 18.0052 233.205 19.1719 233.205 20.6146V47.6927Z" fill="#D1F613"/>
<path d="M280.721 47.5967C280.721 49.0394 281.888 50.2061 283.32 50.2061C284.758 50.2061 285.924 49.0394 285.924 47.5967L285.919 24.0342C285.919 23.7373 285.779 23.1175 285.685 22.8467C285.685 22.9613 285.685 22.7373 285.685 22.8467H296.784C298.091 22.8467 299.148 21.7842 299.148 20.4717C299.148 19.1592 298.091 18.0967 296.784 18.0967H269.388C268.081 18.0967 267.023 19.1592 267.023 20.4717C267.023 21.7842 268.081 22.8467 269.388 22.8467H281.008C280.862 23.1331 280.768 23.4456 280.737 23.7738L280.716 23.8258H280.732C280.732 23.8571 280.727 23.8831 280.727 23.9144C280.727 23.9561 280.721 23.9977 280.721 24.0342V47.5967Z" fill="#D1F613"/>
<path d="M306.513 18.2373C305.206 18.2373 304.148 19.2998 304.148 20.6123C304.148 21.9248 305.206 22.9873 306.513 22.9873H332.497V31.5394H323.284C321.846 31.5394 320.685 32.7061 320.685 34.1488C320.685 35.5915 321.846 36.7633 323.284 36.7633H332.023V45.3154H306.513C305.206 45.3154 304.148 46.3779 304.148 47.6904C304.148 48.9977 305.206 50.0654 306.513 50.0654H334.857C336.159 50.0654 337.221 48.9977 337.221 47.6904V20.6123C337.221 19.2998 336.159 18.2373 334.857 18.2373H306.513Z" fill="#D1F613"/>
</svg>
