<svg version="1.1" xmlns="http://www.w3.org/2000/svg" xmlns:xlink="http://www.w3.org/1999/xlink" x="0px" y="0px" width="1000px"
	 height="336.937px" viewBox="0 0 1000 336.937" xml:space="preserve">
	<g>
		<defs>
			<rect id="SVGID_1_" width="1000" height="336.937"/>
		</defs>
		<clipPath id="SVGID_2_">
			<use xlink:href="#SVGID_1_" overflow="visible"/>
		</clipPath>
		<path clip-path="url(#SVGID_2_)" fill="none" stroke="#313A44" stroke-width="1.116" d="M643.48,261.537h28.874
			c-0.284-0.067-0.497-0.37-0.603-0.423c-0.817-0.403-5.033-0.673-5.033-0.673l-0.545-6.066l-0.678-0.135
			c0,0,0.813-1.886,1.495-1.886s2.313-0.134,2.313-0.134v-6.197c0-1.756,0.547-3.234,1.905-4.586
			c1.358-1.349,9.112-7.815,9.112-7.815l-0.545-1.482c0,0,14.146-2.561,40.534-2.561c15.099,0,35.909,12.802,35.909,12.802
			s22.309,1.214,27.345,6.199c1.495,2.021,1.495,3.102,2.174,4.181c0.682,1.076,1.63,0.944,1.63,0.944v4.175l-1.221,0.404
			l0.12,3.221h43.014"/>
		<path clip-path="url(#SVGID_2_)" fill="none" stroke="#313A44" stroke-width="1.116" d="M604.352,261.613
			c0.346-0.956,0.543-1.984,0.543-3.059c0-5.023-4.096-9.096-9.151-9.096c-5.055,0-9.15,4.072-9.15,9.096
			c0,1.074,0.196,2.103,0.543,3.059"/>
		<path clip-path="url(#SVGID_2_)" fill="none" stroke="#313A44" stroke-width="1.116" d="M700.476,261.613
			c0.346-0.956,0.543-1.984,0.543-3.059c0-5.023-4.096-9.096-9.15-9.096c-5.056,0-9.151,4.072-9.151,9.096
			c0,1.074,0.195,2.103,0.543,3.059"/>
		<path clip-path="url(#SVGID_2_)" fill="none" stroke="#313A44" stroke-width="1.116" d="M770.94,261.613
			c0.346-0.956,0.543-1.984,0.543-3.059c0-5.023-4.096-9.096-9.15-9.096c-5.056,0-9.151,4.072-9.151,9.096
			c0,1.074,0.195,2.103,0.543,3.059"/>
		<path clip-path="url(#SVGID_2_)" fill="none" stroke="#313A44" stroke-width="1.116" d="M490.418,261.654
			c0.344-0.961,0.543-1.992,0.543-3.068c0-5.041-4.096-9.127-9.15-9.127c-5.056,0-9.151,4.086-9.151,9.127
			c0,1.076,0.196,2.107,0.543,3.068"/>
		<path clip-path="url(#SVGID_2_)" fill="none" stroke="#313A44" stroke-width="1.116" d="M391.151,261.4l64.533,0.104
			c0,0-14.609-2.932-18.099-3.633c-3.492-0.702-3.096-2.943-3.096-2.943s0.238-4.945,0.238-21.32
			c0-16.377,4.073-20.88,4.073-22.364c0-1.482,2.193-5.232,7.034-5.232c4.839,0,6.268,1.562,6.268,1.562h104.95l2.803-3.515h52.566
			c17.533,0,21.497,12.029,21.497,12.029h6.901c3.094,0,5.475,2.343,5.475,4.529v7.187h-2.22v-5.699
			c0-1.564-1.59-3.206-2.937-3.206h-5.87c0,0,4.997,11.156,4.997,21.088c0,9.933,0.009,20.346,0.009,21.595l3.537-0.038"/>
		<path clip-path="url(#SVGID_2_)" fill="none" stroke="#313A44" stroke-width="1.116" d="M256.57,261.53
			c0.344-0.86,0.543-1.79,0.543-2.758c0-0.77-0.126-1.511-0.348-2.22h-17.684c-0.223,0.709-0.351,1.45-0.351,2.22
			c0,0.968,0.433,1.871,0.778,2.733h-2.818l-58.707,0.027"/>
		<path clip-path="url(#SVGID_2_)" fill="none" stroke="#313A44" stroke-width="1.116" d="M390.718,261.984
			c0.098-0.754,0.077-2.049,0.077-3.07c0-4.905-3.924-8.883-8.77-8.883c-4.843,0-8.774,3.978-8.774,8.883
			c0,1.05,0.19,2.053,0.521,2.988"/>
		<path clip-path="url(#SVGID_2_)" fill="none" stroke="#313A44" stroke-width="1.116" d="M283.741,261.745
			c0.327-0.862,0.517-1.79,0.517-2.759c0-0.771-0.121-1.514-0.334-2.218h-16.872c-0.213,0.704-0.335,1.447-0.335,2.218
			c0,0.969,0.187,1.896,0.519,2.759"/>
		<path clip-path="url(#SVGID_2_)" fill="none" stroke="#313A44" stroke-width="1.116" d="M366.419,257.7h-33.955
			c0,0-4.758,1.55-4.758-4.625c-9.038-0.298-112.092-0.334-112.092-0.334l-0.382,3.866l-2.416,0.25V201.72h151.739l0.156,52.083
			h4.495"/>
		<path clip-path="url(#SVGID_2_)" fill="none" stroke="#313A44" stroke-width="1.116" d="M374.396,253.786l-4.748-0.019v-20.951
			c0,0,0.45-24.699,0.959-26.88c0.511-2.18,3.839-3.98,4.623-4.159c0.782-0.179,17.134,0.279,21.543,1.329
			c4.406,1.05,4.935,5.504,4.935,5.504l3.525-0.442l3.977-0.499l0.275,4.122l-3.697,0.136l-0.272-1.921l-3.567,1.14l1.97,11.328
			c0,0,0.412,0.36,0.843,0.6c0.432,0.236,0.53,5.146,0.53,5.146l-0.373,0.793l0.275,9.212l-0.353,1.383l-0.529,0.199l0.687,1.389
			l0.097,0.968l-0.177,5.271c0,0,0.373,3.169-0.313,4.948c-0.687,1.785-2.057,2.697-2.057,2.697l-2.41-0.418l-2.585-0.691
			l-7.792-0.212"/>
		<polygon clip-path="url(#SVGID_2_)" fill="#313A44" points="448.901,74.474 448.901,147.554 443.527,147.554 443.527,113.701
			395.919,113.701 395.919,147.554 390.545,147.554 390.545,74.474 395.919,74.474 395.919,108.757 443.527,108.757
			443.527,74.474 			"/>
		<path clip-path="url(#SVGID_2_)" fill="#313A44" d="M494.256,119.934h-20.312v27.619h-5.373V74.474h26.115
			c16.335,0,27.512,8.598,27.512,22.784c0,12.251-8.383,20.312-21.279,22.246l23.966,28.049h-6.985L494.256,119.934z
			 M473.944,114.99h20.527c13.219,0,22.354-6.556,22.354-17.732c0-11.177-9.135-17.84-22.354-17.84h-20.527V114.99z"/>
		<polygon clip-path="url(#SVGID_2_)" fill="#313A44" points="599.687,74.474 565.726,148.091 560.567,148.091 526.607,74.474
			532.518,74.474 563.146,140.998 593.775,74.474 			"/>
		<path clip-path="url(#SVGID_2_)" fill="#313A44" d="M646.224,124.232h-39.549l-10.64,23.321h-5.804l33.639-73.079h5.266
			l33.53,73.079h-5.804L646.224,124.232z M644.074,119.396l-17.625-38.582l-17.625,38.582H644.074z"/>
		<polygon clip-path="url(#SVGID_2_)" fill="#313A44" points="714.255,79.417 686.313,79.417 686.313,147.554 680.939,147.554
			680.939,79.417 652.89,79.417 652.89,74.474 714.255,74.474 			"/>
		<path clip-path="url(#SVGID_2_)" fill="#313A44" d="M773.904,93.496h-5.373c-1.936-9.672-9.136-15.583-22.355-15.583
			c-12.035,0-19.988,5.695-19.988,15.045c0,6.986,5.159,11.5,14.724,13.219l13.433,2.687c12.575,2.257,19.668,8.49,19.668,18.485
			c0,13.111-10.747,21.494-26.76,21.494c-17.411,0-28.05-8.598-30.092-24.396h5.48c1.935,12.574,10.21,19.56,24.826,19.56
			c12.681,0,21.064-6.234,21.064-16.121c0-6.985-5.052-12.036-15.154-13.863l-14.508-2.795
			c-12.145-2.364-18.378-8.705-18.378-18.162c0-12.036,10.21-19.882,25.363-19.882C761.438,73.184,771.969,80.385,773.904,93.496"
			/>
		<polygon clip-path="url(#SVGID_2_)" fill="#313A44" points="809.803,111.981 794.543,127.671 794.543,147.553 789.169,147.553
			789.169,74.474 794.543,74.474 794.543,120.148 839.357,74.474 846.128,74.474 813.564,108.111 850.319,147.553 843.226,147.553
						"/>
		<path clip-path="url(#SVGID_2_)" fill="#313A44" d="M910.505,124.232h-39.548l-10.64,23.321h-5.804l33.639-73.079h5.266
			l33.53,73.079h-5.804L910.505,124.232z M908.355,119.396L890.73,80.814l-17.624,38.582H908.355z"/>
		<path clip-path="url(#SVGID_2_)" fill="#313A44" d="M238.989,113.521c0,22.627-13.082,35.389-33.995,35.389
			c-20.804,0-33.886-12.762-33.886-35.389V74.593h18.229v39.249c0,11.153,6.114,18.123,15.657,18.123
			c9.545,0,15.764-6.97,15.764-18.123V74.593h18.231V113.521z"/>
		<polygon clip-path="url(#SVGID_2_)" fill="#313A44" points="300.88,90.786 282.271,90.786 282.271,147.515 264.254,147.515
			264.254,90.786 245.648,90.786 245.648,74.593 300.88,74.593 			"/>
		<path clip-path="url(#SVGID_2_)" fill="#313A44" d="M377.575,111.055c0,21.233-16.622,37.855-38.605,37.855
			c-21.982,0-38.605-16.622-38.605-37.855c0-21.234,16.623-37.856,38.605-37.856C360.953,73.199,377.575,89.821,377.575,111.055
			 M359.239,111.055c0-11.475-8.473-20.912-20.269-20.912s-20.269,9.437-20.269,20.912c0,11.474,8.473,20.911,20.269,20.911
			S359.239,122.529,359.239,111.055"/>
		<path clip-path="url(#SVGID_2_)" fill="#313A44" d="M145.28,74.593h-3.455l-62.83,72.922h22.538l10.628-12.547h33.119v12.547
			h18.018V74.593H145.28z M124.967,119.848l20.313-23.983v23.983H124.967z"/>
	</g>
</svg>
