<svg xmlns="http://www.w3.org/2000/svg" width="146.396" height="52.072" viewBox="0 0 146.396 52.072"><g transform="translate(0 -0.164)"><path d="M197.014,52.553a1.773,1.773,0,0,0-.952-1.547,11.165,11.165,0,0,0-3.134-.992q-7.14-1.487-7.139-6.069A5.5,5.5,0,0,1,188.01,39.5a8.935,8.935,0,0,1,5.791-1.785A9.723,9.723,0,0,1,199.91,39.5a5.7,5.7,0,0,1,2.3,4.68h-5.355a2.571,2.571,0,0,0-.754-1.9,3.035,3.035,0,0,0-2.3-.753,3.313,3.313,0,0,0-2.1.595,1.954,1.954,0,0,0-.753,1.547,1.63,1.63,0,0,0,.833,1.428,9.029,9.029,0,0,0,2.856.952,21.189,21.189,0,0,1,3.372.913c2.816,1.031,4.244,2.816,4.244,5.394a5.308,5.308,0,0,1-2.34,4.443,10.267,10.267,0,0,1-6.069,1.706,10.764,10.764,0,0,1-4.482-.913,7.315,7.315,0,0,1-3.054-2.459,5.631,5.631,0,0,1-1.11-3.372h5.077a2.725,2.725,0,0,0,1.071,2.182,4.107,4.107,0,0,0,2.618.753,3.919,3.919,0,0,0,2.34-.595,1.918,1.918,0,0,0,.714-1.547" transform="translate(-124.554 -25.257)" fill="#00aeef"/><path d="M243.726,58.544a9.948,9.948,0,0,1-7.179-2.7,9.652,9.652,0,0,1-2.776-7.179v-.516a12.383,12.383,0,0,1,1.15-5.394,8.429,8.429,0,0,1,3.292-3.649,9.143,9.143,0,0,1,4.879-1.269,8.4,8.4,0,0,1,6.466,2.578c1.586,1.746,2.34,4.165,2.34,7.338v2.182H239.165a4.844,4.844,0,0,0,1.547,3.133A4.731,4.731,0,0,0,244,54.261a5.829,5.829,0,0,0,4.839-2.221l2.618,2.935a7.969,7.969,0,0,1-3.252,2.658,10.769,10.769,0,0,1-4.482.912m-.595-16.461a3.352,3.352,0,0,0-2.578,1.071,5.557,5.557,0,0,0-1.269,3.094h7.457v-.436a4.252,4.252,0,0,0-.952-2.776,3.877,3.877,0,0,0-2.658-.952" transform="translate(-157.224 -25.338)" fill="#00aeef"/><path d="M284.4,31.413a12.145,12.145,0,0,1,2.1-7.457,6.79,6.79,0,0,1,5.751-2.777,6.119,6.119,0,0,1,4.839,2.182V13.127h5.355v28.44h-4.839l-.278-2.142a6.329,6.329,0,0,1-5.157,2.5,6.794,6.794,0,0,1-5.672-2.776,12.708,12.708,0,0,1-2.1-7.735m5.355.357a7.749,7.749,0,0,0,.992,4.324,3.181,3.181,0,0,0,2.856,1.507,3.572,3.572,0,0,0,3.491-2.1V27.565a3.553,3.553,0,0,0-3.451-2.1c-2.618,0-3.887,2.1-3.887,6.307" transform="translate(-191.28 -8.718)" fill="#00aeef"/><path d="M345.49,37.994l.158,2.221A7.03,7.03,0,0,1,351.4,37.6c2.578,0,4.363,1.031,5.315,3.054a6.892,6.892,0,0,1,6.029-3.054,5.941,5.941,0,0,1,4.839,1.9c1.071,1.269,1.586,3.173,1.586,5.712V57.985h-5.355V45.213a3.842,3.842,0,0,0-.674-2.5,2.965,2.965,0,0,0-2.34-.793,3.353,3.353,0,0,0-3.332,2.3V57.985h-5.355V45.253a3.966,3.966,0,0,0-.674-2.539,3.023,3.023,0,0,0-2.34-.793,3.464,3.464,0,0,0-3.292,1.9v14.2h-5.315V37.994Z" transform="translate(-229.001 -25.175)" fill="#00aeef"/><path d="M428.8,17.236a2.721,2.721,0,0,1,.793-1.983,3,3,0,0,1,2.181-.793,3.067,3.067,0,0,1,2.182.793,2.605,2.605,0,0,1,.833,1.983,2.547,2.547,0,0,1-.833,1.983,3.4,3.4,0,0,1-4.363,0,2.6,2.6,0,0,1-.793-1.983m5.712,25.227h-5.355V22.432h5.355Z" transform="translate(-288.395 -9.614)" fill="#00aeef"/><path d="M363.872,125.679a4.025,4.025,0,0,1,.4-1.864,3.076,3.076,0,0,1,1.15-1.309,3.164,3.164,0,0,1,4.006.555,3.961,3.961,0,0,1,.912,2.7v.159a4.194,4.194,0,0,1-.4,1.9,3.076,3.076,0,0,1-1.15,1.309,3.256,3.256,0,0,1-4.006-.595,3.962,3.962,0,0,1-.912-2.7Zm.793.238a3.371,3.371,0,0,0,.674,2.142,2.148,2.148,0,0,0,1.785.833,2.124,2.124,0,0,0,1.745-.833,3.527,3.527,0,0,0,.675-2.221v-.159a3.657,3.657,0,0,0-.317-1.507,2.147,2.147,0,0,0-.873-1.071,2.291,2.291,0,0,0-1.269-.4,2.125,2.125,0,0,0-1.745.833,3.527,3.527,0,0,0-.674,2.221Z" transform="translate(-244.726 -81.962)" fill="#00aeef"/><path d="M387.736,119.771a4.349,4.349,0,0,1,.754-2.7,2.432,2.432,0,0,1,2.063-.992,2.47,2.47,0,0,1,2.221,1.15v-4.046h.793V123.5h-.753l-.04-.952a2.644,2.644,0,0,1-2.261,1.111,2.41,2.41,0,0,1-2.023-.992,4.394,4.394,0,0,1-.754-2.737Zm.833.159a3.853,3.853,0,0,0,.555,2.181,1.851,1.851,0,0,0,1.586.793,2.135,2.135,0,0,0,2.1-1.309v-3.411a2.129,2.129,0,0,0-2.1-1.428,1.9,1.9,0,0,0-1.586.793,4.07,4.07,0,0,0-.555,2.38" transform="translate(-260.776 -76.014)" fill="#00aeef"/><path d="M409.252,117.057v8.131a2.257,2.257,0,0,1-.476,1.547,1.8,1.8,0,0,1-1.428.515,2.246,2.246,0,0,1-.714-.119v-.674a3.063,3.063,0,0,0,.595.079c.793,0,1.19-.476,1.19-1.388v-8.131h.833Zm-.4-2.657a.461.461,0,0,1,.4.158.706.706,0,0,1,.158.4.509.509,0,0,1-.158.4.575.575,0,0,1-.793,0,.705.705,0,0,1-.159-.4.542.542,0,0,1,.555-.555" transform="translate(-273.486 -76.829)" fill="#00aeef"/><path d="M423.535,129.648a3.254,3.254,0,0,1-1.666-.436,2.972,2.972,0,0,1-1.15-1.269,3.972,3.972,0,0,1-.4-1.825v-.278a4.311,4.311,0,0,1,.4-1.9,3.276,3.276,0,0,1,1.11-1.309,2.769,2.769,0,0,1,1.587-.476,2.672,2.672,0,0,1,2.1.913,3.661,3.661,0,0,1,.793,2.459v.436h-5.2v.158a3.035,3.035,0,0,0,.714,2.063,2.255,2.255,0,0,0,1.785.833,2.717,2.717,0,0,0,1.15-.238,2.647,2.647,0,0,0,.912-.754l.516.4a3.279,3.279,0,0,1-2.658,1.23m-.119-6.862a1.986,1.986,0,0,0-1.507.674,3.074,3.074,0,0,0-.754,1.785h4.363v-.079a2.844,2.844,0,0,0-.595-1.706,2.049,2.049,0,0,0-1.507-.674" transform="translate(-282.692 -82.043)" fill="#00aeef"/><rect width="0.793" height="10.313" transform="translate(145.246 37.173)" fill="#00aeef"/><g transform="translate(0 0.165)"><g transform="translate(16.492 15.271)"><path d="M64.012,64.336l5.712-13.923V46.8H50.367V56.958h6.545V53.229h4.72l-4.006,9.718Z" transform="translate(-50.367 -46.804)" fill="#00aeef"/><path d="M65.544,100.347l-2.578,6.227,6.386,1.388L71.93,101.7" transform="translate(-58.84 -82.815)" fill="#00aeef"/></g><path d="M9.2,53.891l-5.683-2.4a25.865,25.865,0,0,0-.805,2.478l6.017,1.378Q8.941,54.607,9.2,53.891Z" transform="translate(-1.827 -34.685)" fill="#00aeef"/><path d="M13.879,42.368,8.7,39.016a26.009,26.009,0,0,0-1.222,2.3l5.686,2.4C13.383,43.257,13.624,42.808,13.879,42.368Z" transform="translate(-5.027 -26.295)" fill="#00aeef"/><path d="M26.036.165a25.933,25.933,0,0,0-18.4,7.621l4.52,4.2a19.889,19.889,0,1,1-5.685,10.73L.46,21.338A26.035,26.035,0,1,0,26.036.165Z" transform="translate(0 -0.165)" fill="#00aeef"/><path d="M20.542,31.979l-4.52-4.2c-.566.657-1.1,1.341-1.6,2.053L19.6,33.183Q20.048,32.562,20.542,31.979Z" transform="translate(-9.698 -18.737)" fill="#00aeef"/></g></g></svg>